<mxfile host="Electron" agent="Mozilla/5.0 (Windows NT 10.0; Win64; x64) AppleWebKit/537.36 (KHTML, like Gecko) draw.io/25.0.2 Chrome/128.0.6613.186 Electron/32.2.5 Safari/537.36" version="25.0.2">
  <diagram name="Page-1" id="AXLPlhT37EBG6RWEEMV4">
    <mxGraphModel dx="1302" dy="758" grid="1" gridSize="10" guides="1" tooltips="1" connect="1" arrows="1" fold="1" page="1" pageScale="1" pageWidth="850" pageHeight="1100" math="0" shadow="0">
      <root>
        <mxCell id="0" />
        <mxCell id="1" parent="0" />
        <mxCell id="AIuAHPGdyh8SmVZn7fvh-35" value="" style="rounded=0;whiteSpace=wrap;html=1;fillColor=#fff2cc;strokeColor=#d6b656;" vertex="1" parent="1">
          <mxGeometry x="420" y="10" width="390" height="480" as="geometry" />
        </mxCell>
        <mxCell id="AIuAHPGdyh8SmVZn7fvh-34" value="" style="rounded=0;whiteSpace=wrap;html=1;fillColor=#dae8fc;strokeColor=#6c8ebf;" vertex="1" parent="1">
          <mxGeometry x="20" y="10" width="400" height="480" as="geometry" />
        </mxCell>
        <mxCell id="wS5YviGaXeMeBB0bj0Yk-13" value="Tabulka symbolů" style="swimlane;fontStyle=0;childLayout=stackLayout;horizontal=1;startSize=26;horizontalStack=0;resizeParent=1;resizeParentMax=0;resizeLast=0;collapsible=1;marginBottom=0;whiteSpace=wrap;html=1;" parent="1" vertex="1">
          <mxGeometry x="65" y="185" width="110" height="130" as="geometry" />
        </mxCell>
        <mxCell id="wS5YviGaXeMeBB0bj0Yk-14" value="+odkaz na rodiče" style="text;strokeColor=#666666;fillColor=#f5f5f5;align=left;verticalAlign=top;spacingLeft=4;spacingRight=4;overflow=hidden;rotatable=0;points=[[0,0.5],[1,0.5]];portConstraint=eastwest;whiteSpace=wrap;html=1;fontColor=#333333;" parent="wS5YviGaXeMeBB0bj0Yk-13" vertex="1">
          <mxGeometry y="26" width="110" height="26" as="geometry" />
        </mxCell>
        <mxCell id="wS5YviGaXeMeBB0bj0Yk-15" value="+odkaz do ASS" style="text;strokeColor=#666666;fillColor=#f5f5f5;align=left;verticalAlign=top;spacingLeft=4;spacingRight=4;overflow=hidden;rotatable=0;points=[[0,0.5],[1,0.5]];portConstraint=eastwest;whiteSpace=wrap;html=1;fontColor=#333333;" parent="wS5YviGaXeMeBB0bj0Yk-13" vertex="1">
          <mxGeometry y="52" width="110" height="26" as="geometry" />
        </mxCell>
        <mxCell id="wS5YviGaXeMeBB0bj0Yk-16" value="+objekty" style="text;strokeColor=#666666;fillColor=#f5f5f5;align=left;verticalAlign=top;spacingLeft=4;spacingRight=4;overflow=hidden;rotatable=0;points=[[0,0.5],[1,0.5]];portConstraint=eastwest;whiteSpace=wrap;html=1;fontColor=#333333;" parent="wS5YviGaXeMeBB0bj0Yk-13" vertex="1">
          <mxGeometry y="78" width="110" height="26" as="geometry" />
        </mxCell>
        <mxCell id="wS5YviGaXeMeBB0bj0Yk-17" value="+..." style="text;strokeColor=#666666;fillColor=#f5f5f5;align=left;verticalAlign=top;spacingLeft=4;spacingRight=4;overflow=hidden;rotatable=0;points=[[0,0.5],[1,0.5]];portConstraint=eastwest;whiteSpace=wrap;html=1;fontColor=#333333;" parent="wS5YviGaXeMeBB0bj0Yk-13" vertex="1">
          <mxGeometry y="104" width="110" height="26" as="geometry" />
        </mxCell>
        <mxCell id="wS5YviGaXeMeBB0bj0Yk-18" value="Globální tabulka symbolů" style="swimlane;fontStyle=0;childLayout=stackLayout;horizontal=1;startSize=26;horizontalStack=0;resizeParent=1;resizeParentMax=0;resizeLast=0;collapsible=1;marginBottom=0;whiteSpace=wrap;html=1;" parent="1" vertex="1">
          <mxGeometry x="50" y="50" width="140" height="104" as="geometry" />
        </mxCell>
        <mxCell id="wS5YviGaXeMeBB0bj0Yk-21" value="+objekty" style="text;align=left;verticalAlign=top;spacingLeft=4;spacingRight=4;overflow=hidden;rotatable=0;points=[[0,0.5],[1,0.5]];portConstraint=eastwest;whiteSpace=wrap;html=1;fillColor=#f5f5f5;fontColor=#333333;strokeColor=#666666;" parent="wS5YviGaXeMeBB0bj0Yk-18" vertex="1">
          <mxGeometry y="26" width="140" height="26" as="geometry" />
        </mxCell>
        <mxCell id="wS5YviGaXeMeBB0bj0Yk-26" value="+funkce" style="text;align=left;verticalAlign=top;spacingLeft=4;spacingRight=4;overflow=hidden;rotatable=0;points=[[0,0.5],[1,0.5]];portConstraint=eastwest;whiteSpace=wrap;html=1;fillColor=#f5f5f5;fontColor=#333333;strokeColor=#666666;" parent="wS5YviGaXeMeBB0bj0Yk-18" vertex="1">
          <mxGeometry y="52" width="140" height="26" as="geometry" />
        </mxCell>
        <mxCell id="wS5YviGaXeMeBB0bj0Yk-22" value="+..." style="text;align=left;verticalAlign=top;spacingLeft=4;spacingRight=4;overflow=hidden;rotatable=0;points=[[0,0.5],[1,0.5]];portConstraint=eastwest;whiteSpace=wrap;html=1;fillColor=#f5f5f5;fontColor=#333333;strokeColor=#666666;" parent="wS5YviGaXeMeBB0bj0Yk-18" vertex="1">
          <mxGeometry y="78" width="140" height="26" as="geometry" />
        </mxCell>
        <mxCell id="wS5YviGaXeMeBB0bj0Yk-25" style="edgeStyle=orthogonalEdgeStyle;rounded=0;orthogonalLoop=1;jettySize=auto;html=1;" parent="1" source="wS5YviGaXeMeBB0bj0Yk-14" target="wS5YviGaXeMeBB0bj0Yk-18" edge="1">
          <mxGeometry relative="1" as="geometry">
            <Array as="points">
              <mxPoint x="30" y="219" />
              <mxPoint x="30" y="170" />
              <mxPoint x="120" y="170" />
            </Array>
          </mxGeometry>
        </mxCell>
        <mxCell id="wS5YviGaXeMeBB0bj0Yk-28" value="Tabulka symbolů" style="swimlane;fontStyle=0;childLayout=stackLayout;horizontal=1;startSize=26;horizontalStack=0;resizeParent=1;resizeParentMax=0;resizeLast=0;collapsible=1;marginBottom=0;whiteSpace=wrap;html=1;" parent="1" vertex="1">
          <mxGeometry x="65" y="335" width="110" height="130" as="geometry" />
        </mxCell>
        <mxCell id="wS5YviGaXeMeBB0bj0Yk-29" value="+odkaz na rodiče" style="text;strokeColor=#666666;fillColor=#f5f5f5;align=left;verticalAlign=top;spacingLeft=4;spacingRight=4;overflow=hidden;rotatable=0;points=[[0,0.5],[1,0.5]];portConstraint=eastwest;whiteSpace=wrap;html=1;fontColor=#333333;" parent="wS5YviGaXeMeBB0bj0Yk-28" vertex="1">
          <mxGeometry y="26" width="110" height="26" as="geometry" />
        </mxCell>
        <mxCell id="wS5YviGaXeMeBB0bj0Yk-30" value="+odkaz do ASS" style="text;strokeColor=#666666;fillColor=#f5f5f5;align=left;verticalAlign=top;spacingLeft=4;spacingRight=4;overflow=hidden;rotatable=0;points=[[0,0.5],[1,0.5]];portConstraint=eastwest;whiteSpace=wrap;html=1;fontColor=#333333;" parent="wS5YviGaXeMeBB0bj0Yk-28" vertex="1">
          <mxGeometry y="52" width="110" height="26" as="geometry" />
        </mxCell>
        <mxCell id="wS5YviGaXeMeBB0bj0Yk-31" value="+objekty" style="text;strokeColor=#666666;fillColor=#f5f5f5;align=left;verticalAlign=top;spacingLeft=4;spacingRight=4;overflow=hidden;rotatable=0;points=[[0,0.5],[1,0.5]];portConstraint=eastwest;whiteSpace=wrap;html=1;fontColor=#333333;" parent="wS5YviGaXeMeBB0bj0Yk-28" vertex="1">
          <mxGeometry y="78" width="110" height="26" as="geometry" />
        </mxCell>
        <mxCell id="wS5YviGaXeMeBB0bj0Yk-32" value="+..." style="text;strokeColor=#666666;fillColor=#f5f5f5;align=left;verticalAlign=top;spacingLeft=4;spacingRight=4;overflow=hidden;rotatable=0;points=[[0,0.5],[1,0.5]];portConstraint=eastwest;whiteSpace=wrap;html=1;fontColor=#333333;" parent="wS5YviGaXeMeBB0bj0Yk-28" vertex="1">
          <mxGeometry y="104" width="110" height="26" as="geometry" />
        </mxCell>
        <mxCell id="wS5YviGaXeMeBB0bj0Yk-34" style="edgeStyle=orthogonalEdgeStyle;rounded=0;orthogonalLoop=1;jettySize=auto;html=1;" parent="1" source="wS5YviGaXeMeBB0bj0Yk-29" target="wS5YviGaXeMeBB0bj0Yk-13" edge="1">
          <mxGeometry relative="1" as="geometry">
            <Array as="points">
              <mxPoint x="30" y="379" />
              <mxPoint x="30" y="330" />
              <mxPoint x="90" y="330" />
            </Array>
          </mxGeometry>
        </mxCell>
        <mxCell id="wS5YviGaXeMeBB0bj0Yk-35" value="" style="shape=partialRectangle;whiteSpace=wrap;html=1;bottom=1;right=1;left=1;top=0;fillColor=none;routingCenterX=-0.5;" parent="1" vertex="1">
          <mxGeometry x="615" y="105" width="140" height="370" as="geometry" />
        </mxCell>
        <mxCell id="wS5YviGaXeMeBB0bj0Yk-36" value="Zásobník volání&lt;br&gt;obsahuje kopie tabulek symbolů" style="text;html=1;align=center;verticalAlign=middle;resizable=0;points=[];autosize=1;strokeColor=none;fillColor=none;" parent="1" vertex="1">
          <mxGeometry x="590" y="50" width="190" height="40" as="geometry" />
        </mxCell>
        <mxCell id="wS5YviGaXeMeBB0bj0Yk-38" value="global" style="rounded=0;whiteSpace=wrap;html=1;" parent="1" vertex="1">
          <mxGeometry x="625" y="445" width="120" height="20" as="geometry" />
        </mxCell>
        <mxCell id="wS5YviGaXeMeBB0bj0Yk-48" style="edgeStyle=orthogonalEdgeStyle;rounded=0;orthogonalLoop=1;jettySize=auto;html=1;entryX=1;entryY=0;entryDx=0;entryDy=0;" parent="1" source="wS5YviGaXeMeBB0bj0Yk-40" target="wS5YviGaXeMeBB0bj0Yk-38" edge="1">
          <mxGeometry relative="1" as="geometry">
            <Array as="points">
              <mxPoint x="760" y="425" />
              <mxPoint x="760" y="445" />
            </Array>
          </mxGeometry>
        </mxCell>
        <mxCell id="wS5YviGaXeMeBB0bj0Yk-40" value="main" style="rounded=0;whiteSpace=wrap;html=1;" parent="1" vertex="1">
          <mxGeometry x="625" y="415" width="120" height="20" as="geometry" />
        </mxCell>
        <mxCell id="wS5YviGaXeMeBB0bj0Yk-47" style="edgeStyle=orthogonalEdgeStyle;rounded=0;orthogonalLoop=1;jettySize=auto;html=1;entryX=1;entryY=0.5;entryDx=0;entryDy=0;" parent="1" source="wS5YviGaXeMeBB0bj0Yk-41" target="wS5YviGaXeMeBB0bj0Yk-38" edge="1">
          <mxGeometry relative="1" as="geometry">
            <Array as="points">
              <mxPoint x="769" y="395" />
              <mxPoint x="769" y="455" />
            </Array>
          </mxGeometry>
        </mxCell>
        <mxCell id="wS5YviGaXeMeBB0bj0Yk-41" value="func_a: 1" style="rounded=0;whiteSpace=wrap;html=1;" parent="1" vertex="1">
          <mxGeometry x="625" y="385" width="120" height="20" as="geometry" />
        </mxCell>
        <mxCell id="wS5YviGaXeMeBB0bj0Yk-46" style="edgeStyle=orthogonalEdgeStyle;rounded=0;orthogonalLoop=1;jettySize=auto;html=1;" parent="1" source="wS5YviGaXeMeBB0bj0Yk-42" edge="1">
          <mxGeometry relative="1" as="geometry">
            <mxPoint x="745" y="465" as="targetPoint" />
            <Array as="points">
              <mxPoint x="775" y="335" />
              <mxPoint x="775" y="465" />
            </Array>
          </mxGeometry>
        </mxCell>
        <mxCell id="wS5YviGaXeMeBB0bj0Yk-42" value="func_a: 2" style="rounded=0;whiteSpace=wrap;html=1;" parent="1" vertex="1">
          <mxGeometry x="625" y="325" width="120" height="20" as="geometry" />
        </mxCell>
        <mxCell id="wS5YviGaXeMeBB0bj0Yk-45" style="edgeStyle=orthogonalEdgeStyle;rounded=0;orthogonalLoop=1;jettySize=auto;html=1;" parent="1" source="wS5YviGaXeMeBB0bj0Yk-43" edge="1">
          <mxGeometry relative="1" as="geometry">
            <mxPoint x="745" y="325" as="targetPoint" />
            <Array as="points">
              <mxPoint x="775" y="305" />
              <mxPoint x="775" y="325" />
            </Array>
          </mxGeometry>
        </mxCell>
        <mxCell id="wS5YviGaXeMeBB0bj0Yk-43" value="for loop" style="rounded=0;whiteSpace=wrap;html=1;" parent="1" vertex="1">
          <mxGeometry x="625" y="295" width="120" height="20" as="geometry" />
        </mxCell>
        <mxCell id="wS5YviGaXeMeBB0bj0Yk-44" value="&lt;div style=&quot;&quot;&gt;&lt;span style=&quot;font-size: 30px; background-color: transparent; color: light-dark(rgb(0, 0, 0), rgb(255, 255, 255));&quot;&gt;...&lt;/span&gt;&lt;/div&gt;" style="text;html=1;align=center;verticalAlign=middle;resizable=0;points=[];autosize=1;strokeColor=none;fillColor=none;textDirection=vertical-lr;spacing=0;" parent="1" vertex="1">
          <mxGeometry x="675" y="235" width="40" height="50" as="geometry" />
        </mxCell>
        <mxCell id="wS5YviGaXeMeBB0bj0Yk-50" style="edgeStyle=orthogonalEdgeStyle;rounded=0;orthogonalLoop=1;jettySize=auto;html=1;" parent="1" source="wS5YviGaXeMeBB0bj0Yk-49" edge="1">
          <mxGeometry relative="1" as="geometry">
            <mxPoint x="745" y="385" as="targetPoint" />
            <Array as="points">
              <mxPoint x="765" y="365" />
              <mxPoint x="765" y="385" />
            </Array>
          </mxGeometry>
        </mxCell>
        <mxCell id="wS5YviGaXeMeBB0bj0Yk-49" value="for loop" style="rounded=0;whiteSpace=wrap;html=1;" parent="1" vertex="1">
          <mxGeometry x="625" y="355" width="120" height="20" as="geometry" />
        </mxCell>
        <mxCell id="AIuAHPGdyh8SmVZn7fvh-7" style="rounded=0;orthogonalLoop=1;jettySize=auto;html=1;" edge="1" parent="1" source="AIuAHPGdyh8SmVZn7fvh-2" target="AIuAHPGdyh8SmVZn7fvh-3">
          <mxGeometry relative="1" as="geometry">
            <mxPoint x="563.7343862242888" y="225.02625589461798" as="sourcePoint" />
          </mxGeometry>
        </mxCell>
        <mxCell id="AIuAHPGdyh8SmVZn7fvh-8" style="rounded=0;orthogonalLoop=1;jettySize=auto;html=1;" edge="1" parent="1" source="AIuAHPGdyh8SmVZn7fvh-2" target="AIuAHPGdyh8SmVZn7fvh-4">
          <mxGeometry relative="1" as="geometry" />
        </mxCell>
        <mxCell id="AIuAHPGdyh8SmVZn7fvh-2" value="ASS" style="ellipse;whiteSpace=wrap;html=1;" vertex="1" parent="1">
          <mxGeometry x="360" y="196" width="120" height="30" as="geometry" />
        </mxCell>
        <mxCell id="AIuAHPGdyh8SmVZn7fvh-6" style="edgeStyle=orthogonalEdgeStyle;rounded=0;orthogonalLoop=1;jettySize=auto;html=1;" edge="1" parent="1" source="AIuAHPGdyh8SmVZn7fvh-3" target="AIuAHPGdyh8SmVZn7fvh-5">
          <mxGeometry relative="1" as="geometry" />
        </mxCell>
        <mxCell id="AIuAHPGdyh8SmVZn7fvh-39" style="edgeStyle=orthogonalEdgeStyle;rounded=0;orthogonalLoop=1;jettySize=auto;html=1;" edge="1" parent="1" source="AIuAHPGdyh8SmVZn7fvh-3" target="AIuAHPGdyh8SmVZn7fvh-38">
          <mxGeometry relative="1" as="geometry">
            <mxPoint x="154.4483011179957" y="482.655172413793" as="targetPoint" />
            <Array as="points">
              <mxPoint x="410" y="261" />
              <mxPoint x="410" y="474" />
            </Array>
          </mxGeometry>
        </mxCell>
        <mxCell id="AIuAHPGdyh8SmVZn7fvh-3" value="main" style="ellipse;whiteSpace=wrap;html=1;" vertex="1" parent="1">
          <mxGeometry x="450" y="246" width="120" height="30" as="geometry" />
        </mxCell>
        <mxCell id="AIuAHPGdyh8SmVZn7fvh-13" style="edgeStyle=orthogonalEdgeStyle;rounded=0;orthogonalLoop=1;jettySize=auto;html=1;" edge="1" parent="1" source="AIuAHPGdyh8SmVZn7fvh-4" target="AIuAHPGdyh8SmVZn7fvh-10">
          <mxGeometry relative="1" as="geometry" />
        </mxCell>
        <mxCell id="AIuAHPGdyh8SmVZn7fvh-31" style="edgeStyle=orthogonalEdgeStyle;rounded=0;orthogonalLoop=1;jettySize=auto;html=1;" edge="1" parent="1" source="AIuAHPGdyh8SmVZn7fvh-4" target="wS5YviGaXeMeBB0bj0Yk-13">
          <mxGeometry relative="1" as="geometry">
            <Array as="points">
              <mxPoint x="210" y="266" />
              <mxPoint x="210" y="330" />
              <mxPoint x="140" y="330" />
            </Array>
          </mxGeometry>
        </mxCell>
        <mxCell id="AIuAHPGdyh8SmVZn7fvh-4" value="func_a" style="ellipse;whiteSpace=wrap;html=1;" vertex="1" parent="1">
          <mxGeometry x="280" y="246" width="120" height="30" as="geometry" />
        </mxCell>
        <mxCell id="AIuAHPGdyh8SmVZn7fvh-5" value="expr" style="ellipse;whiteSpace=wrap;html=1;" vertex="1" parent="1">
          <mxGeometry x="450" y="316" width="120" height="30" as="geometry" />
        </mxCell>
        <mxCell id="AIuAHPGdyh8SmVZn7fvh-12" style="edgeStyle=orthogonalEdgeStyle;rounded=0;orthogonalLoop=1;jettySize=auto;html=1;" edge="1" parent="1" source="AIuAHPGdyh8SmVZn7fvh-10" target="AIuAHPGdyh8SmVZn7fvh-11">
          <mxGeometry relative="1" as="geometry" />
        </mxCell>
        <mxCell id="AIuAHPGdyh8SmVZn7fvh-32" style="edgeStyle=orthogonalEdgeStyle;rounded=0;orthogonalLoop=1;jettySize=auto;html=1;" edge="1" parent="1" source="AIuAHPGdyh8SmVZn7fvh-10" target="wS5YviGaXeMeBB0bj0Yk-28">
          <mxGeometry relative="1" as="geometry">
            <Array as="points">
              <mxPoint x="240" y="337" />
              <mxPoint x="240" y="420" />
            </Array>
          </mxGeometry>
        </mxCell>
        <mxCell id="AIuAHPGdyh8SmVZn7fvh-10" value="for loop" style="ellipse;whiteSpace=wrap;html=1;" vertex="1" parent="1">
          <mxGeometry x="280" y="316" width="120" height="30" as="geometry" />
        </mxCell>
        <mxCell id="AIuAHPGdyh8SmVZn7fvh-11" value="expr" style="ellipse;whiteSpace=wrap;html=1;" vertex="1" parent="1">
          <mxGeometry x="280" y="376" width="120" height="30" as="geometry" />
        </mxCell>
        <mxCell id="AIuAHPGdyh8SmVZn7fvh-16" style="edgeStyle=orthogonalEdgeStyle;rounded=0;orthogonalLoop=1;jettySize=auto;html=1;" edge="1" parent="1" source="wS5YviGaXeMeBB0bj0Yk-15" target="AIuAHPGdyh8SmVZn7fvh-4">
          <mxGeometry relative="1" as="geometry">
            <Array as="points">
              <mxPoint x="210" y="245" />
              <mxPoint x="210" y="261" />
            </Array>
          </mxGeometry>
        </mxCell>
        <mxCell id="AIuAHPGdyh8SmVZn7fvh-17" style="edgeStyle=orthogonalEdgeStyle;rounded=0;orthogonalLoop=1;jettySize=auto;html=1;entryX=0;entryY=0.5;entryDx=0;entryDy=0;" edge="1" parent="1" source="wS5YviGaXeMeBB0bj0Yk-30" target="AIuAHPGdyh8SmVZn7fvh-10">
          <mxGeometry relative="1" as="geometry">
            <Array as="points">
              <mxPoint x="235" y="405" />
              <mxPoint x="235" y="331" />
            </Array>
          </mxGeometry>
        </mxCell>
        <mxCell id="AIuAHPGdyh8SmVZn7fvh-19" value="Zjednodušený abstraktní syntaktický strom" style="whiteSpace=wrap;html=1;shape=mxgraph.basic.document" vertex="1" parent="1">
          <mxGeometry x="425" y="366" width="100" height="50" as="geometry" />
        </mxCell>
        <mxCell id="AIuAHPGdyh8SmVZn7fvh-36" value="&lt;b&gt;Sémantická analýza&lt;/b&gt;" style="text;html=1;align=center;verticalAlign=middle;resizable=0;points=[];autosize=1;strokeColor=none;fillColor=none;" vertex="1" parent="1">
          <mxGeometry x="135" y="15" width="140" height="30" as="geometry" />
        </mxCell>
        <mxCell id="AIuAHPGdyh8SmVZn7fvh-37" value="&lt;b&gt;Interpretace&lt;/b&gt;" style="text;html=1;align=center;verticalAlign=middle;resizable=0;points=[];autosize=1;strokeColor=none;fillColor=none;" vertex="1" parent="1">
          <mxGeometry x="570" y="15" width="90" height="30" as="geometry" />
        </mxCell>
        <mxCell id="AIuAHPGdyh8SmVZn7fvh-40" style="edgeStyle=orthogonalEdgeStyle;rounded=0;orthogonalLoop=1;jettySize=auto;html=1;" edge="1" parent="1" source="AIuAHPGdyh8SmVZn7fvh-38" target="AIuAHPGdyh8SmVZn7fvh-3">
          <mxGeometry relative="1" as="geometry">
            <Array as="points">
              <mxPoint x="415" y="480" />
              <mxPoint x="415" y="267" />
            </Array>
          </mxGeometry>
        </mxCell>
        <mxCell id="AIuAHPGdyh8SmVZn7fvh-38" value="&lt;b&gt;&lt;font style=&quot;font-size: 30px;&quot;&gt;...&lt;/font&gt;&lt;/b&gt;" style="text;html=1;align=center;verticalAlign=middle;resizable=0;points=[];autosize=1;strokeColor=none;fillColor=none;" vertex="1" parent="1">
          <mxGeometry x="94" y="449" width="50" height="50" as="geometry" />
        </mxCell>
      </root>
    </mxGraphModel>
  </diagram>
</mxfile>
